<svg width="14" height="14" viewBox="0 0 14 14" fill="none" xmlns="http://www.w3.org/2000/svg">
<g id="calendar-clear" opacity="0.7" clip-path="url(#clip0_8260_3650)">
<path id="Vector" d="M13.125 3.49999C13.125 3.03586 12.9406 2.59074 12.6124 2.26255C12.2842 1.93436 11.8391 1.74999 11.375 1.74999H10.9375V1.3248C10.9375 1.08937 10.7565 0.887295 10.5211 0.875537C10.4619 0.872687 10.4028 0.881877 10.3473 0.902549C10.2918 0.923222 10.2411 0.954946 10.1982 0.995801C10.1553 1.03666 10.1212 1.08579 10.0979 1.14023C10.0745 1.19466 10.0625 1.25327 10.0625 1.31249V1.74999H3.9375V1.3248C3.9375 1.08937 3.75648 0.887295 3.52105 0.875537C3.4619 0.872687 3.40278 0.881877 3.34729 0.902549C3.29179 0.923222 3.24107 0.954946 3.19819 0.995801C3.15532 1.03666 3.12118 1.08579 3.09786 1.14023C3.07453 1.19466 3.06251 1.25327 3.0625 1.31249V1.74999H2.625C2.16087 1.74999 1.71575 1.93436 1.38756 2.26255C1.05937 2.59074 0.875 3.03586 0.875 3.49999V3.82812C0.875 3.85712 0.886523 3.88494 0.907035 3.90546C0.927547 3.92597 0.955367 3.93749 0.984375 3.93749H13.0156C13.0446 3.93749 13.0725 3.92597 13.093 3.90546C13.1135 3.88494 13.125 3.85712 13.125 3.82812V3.49999ZM0.875 11.375C0.875 11.8391 1.05937 12.2842 1.38756 12.6124C1.71575 12.9406 2.16087 13.125 2.625 13.125H11.375C11.8391 13.125 12.2842 12.9406 12.6124 12.6124C12.9406 12.2842 13.125 11.8391 13.125 11.375V4.92187C13.125 4.89286 13.1135 4.86504 13.093 4.84453C13.0725 4.82401 13.0446 4.81249 13.0156 4.81249H0.984375C0.955367 4.81249 0.927547 4.82401 0.907035 4.84453C0.886523 4.86504 0.875 4.89286 0.875 4.92187V11.375Z" fill="#040A19"/>
</g>
<defs>
<clipPath id="clip0_8260_3650">
<rect width="14" height="14" fill="white"/>
</clipPath>
</defs>
</svg>
