<svg width="196" height="90" viewBox="0 0 196 90" fill="none" xmlns="http://www.w3.org/2000/svg">
<g id="Logo">
<rect id="Rectangle 67" width="196" height="90" fill="white"/>
<path id="Logo_2" fill-rule="evenodd" clip-rule="evenodd" d="M64.2722 26.1579L63.5932 25L62.9447 26.1753L57.05 36.8595L56.872 37.1821L57.0137 37.5222L57.4942 38.6752H56.6135H56.1724L55.9519 39.0573L42.14 62.998L41.6991 63.7284L41 64.8868H42.353H54.4029H54.8222L55.0473 64.5331L55.5802 63.6956L55.9182 64.4391L56.1217 64.8868H56.6135H85.7186H87.0635L86.3745 63.7318L80.1114 53.2318L80.0574 53.1413L79.9809 53.0688L79.0318 52.1691L79.0286 52.1558H81.7317C85.7642 52.1558 88.3609 49.7119 88.3609 45.9238C88.3609 42.1663 85.7947 39.7834 81.7317 39.7834H75.1942V44.7812L64.2722 26.1579ZM75.1942 47.8006L63.6337 28.0885L58.5654 37.2748L59.3448 39.1452L59.7854 40.2027H58.6398H57.0546L43.6949 63.3593H53.9837L55.0481 61.6867L55.8046 60.4979L56.3877 61.7807L57.1052 63.3593H84.3738L78.8536 54.1048L78.3408 53.6187V56.202H78.3501L81.6659 61.9125H72.6396L75.1942 57.2542V52.7726L69.8764 61.9125H57.9028L56.7975 59.8862L60.2975 53.9915L61.587 55.8336H66.3765L68.7712 51.7809L66.3765 47.3599H61.587L52.9291 61.9125H45.9292L57.9028 41.4652H69.508L75.1942 50.8307V47.8006ZM63.7976 31.1495L60.1134 37.0442L61.4028 38.7021H68.2186L63.7976 31.1495ZM78.3408 42.5939V49.3147H81.7012C83.9312 49.3147 85.1532 48.0622 85.1532 45.9543C85.1532 43.877 83.9312 42.5939 81.7012 42.5939H78.3408ZM98.753 44.7935C99.1196 44.7935 99.4862 44.8546 99.8528 44.9462V47.7873H98.9058C96.6146 47.7873 95.0566 49.1314 95.0566 51.4837V59.9458H91.9406V44.9462H94.8122V46.7486C95.6981 45.4961 97.1645 44.7935 98.753 44.7935ZM108.835 60.2819C104.803 60.2819 101.901 57.0437 101.901 52.4308C101.901 47.7873 104.803 44.6102 108.835 44.6102C112.898 44.6102 115.8 47.8484 115.8 52.4308C115.8 57.0437 112.898 60.2819 108.835 60.2819ZM108.835 57.4408C111.157 57.4408 112.654 55.5162 112.654 52.4613C112.654 49.3758 111.157 47.4512 108.866 47.4512C106.544 47.4512 105.047 49.3758 105.047 52.4613C105.047 55.5468 106.513 57.4408 108.835 57.4408ZM128.85 50.5062L138.137 39.539H139.42L135.815 59.9458H132.668L134.837 47.6956L128.85 54.783H127.78L123.962 47.1458L121.701 59.9458H118.555L122.129 39.539H123.412L128.85 50.5062ZM148.094 60.2819C144.062 60.2819 141.16 57.0437 141.16 52.4308C141.16 47.7873 144.062 44.6102 148.094 44.6102C152.157 44.6102 155.06 47.8484 155.06 52.4308C155.06 57.0437 152.157 60.2819 148.094 60.2819ZM148.094 57.4408C150.416 57.4408 151.913 55.5162 151.913 52.4613C151.913 49.3758 150.416 47.4512 148.125 47.4512C145.803 47.4512 144.306 49.3758 144.306 52.4613C144.306 55.5468 145.773 57.4408 148.094 57.4408Z" fill="#285FEC"/>
</g>
</svg>
