<svg width="40" height="40" viewBox="0 0 40 40" fill="none" xmlns="http://www.w3.org/2000/svg">
<circle cx="20" cy="20" r="20" fill="#EDF0F7"/>
<g clip-path="url(#clip0_8260_3636)">
<g opacity="0.7">
<path d="M25.9625 21.554H25.961V18.022C25.961 18.0024 25.9625 17.9827 25.9625 17.963C25.9625 14.9859 23.4995 12.5698 20.4649 12.5698C17.4304 12.5698 14.9674 14.9859 14.9674 17.963C14.9674 17.9827 14.9673 18.0024 14.9688 18.022V21.6251L12.527 25.1299H28.4724L25.9625 21.554Z" fill="#040A19"/>
<path d="M17.9988 25.9286C17.9988 27.309 19.1192 28.4294 20.4997 28.4294C21.8786 28.4294 22.999 27.309 22.999 25.9286" fill="#040A19"/>
</g>
<path d="M27.98 15.46C27.98 16.8076 26.8876 17.9 25.54 17.9C24.1924 17.9 23.1 16.8076 23.1 15.46C23.1 14.1124 24.1924 13.02 25.54 13.02C26.8876 13.02 27.98 14.1124 27.98 15.46Z" fill="#EA1818" stroke="white"/>
</g>
<defs>
<clipPath id="clip0_8260_3636">
<rect width="21" height="21" fill="white" transform="translate(10 10)"/>
</clipPath>
</defs>
</svg>
