<svg width="14" height="14" viewBox="0 0 14 14" fill="none" xmlns="http://www.w3.org/2000/svg">
<path id="Vector" opacity="0.7" d="M13.7854 12.51L10.6117 9.38431C11.3758 8.38252 11.7883 7.16313 11.7869 5.91019C11.7869 2.70981 9.14306 0.106049 5.89344 0.106049C2.64382 0.106049 0 2.70981 0 5.91019C0 9.11058 2.64382 11.7143 5.89344 11.7143C7.16566 11.7157 8.4038 11.3095 9.421 10.557L12.5947 13.6826C12.7554 13.824 12.9649 13.8995 13.1803 13.8936C13.3957 13.8877 13.6006 13.8007 13.753 13.6507C13.9054 13.5006 13.9936 13.2988 13.9997 13.0867C14.0057 12.8745 13.929 12.6682 13.7854 12.51V12.51ZM1.68384 5.91019C1.68384 5.09023 1.93073 4.28868 2.39329 3.6069C2.85584 2.92512 3.51329 2.39374 4.2825 2.07996C5.0517 1.76617 5.89811 1.68407 6.71469 1.84404C7.53127 2.004 8.28135 2.39885 8.87008 2.97866C9.4588 3.55846 9.85973 4.29717 10.0222 5.10138C10.1846 5.90559 10.1012 6.73918 9.7826 7.49673C9.46399 8.25428 8.92443 8.90177 8.23217 9.35731C7.5399 9.81286 6.72602 10.056 5.89344 10.056C4.7774 10.0547 3.70745 9.61748 2.91828 8.84027C2.12912 8.06307 1.68518 7.00933 1.68384 5.91019V5.91019Z" fill="#040A19"/>
</svg>
