<svg width="14" height="14" viewBox="0 0 14 14" fill="none" xmlns="http://www.w3.org/2000/svg">
<g id="bx:bx-link">
<path id="Vector" d="M4.93791 6.58759C5.59883 5.92667 6.75149 5.92667 7.41241 6.58759L7.82483 7.00001L8.64966 6.17517L8.23724 5.76276C7.68716 5.21209 6.95449 4.90817 6.17516 4.90817C5.39583 4.90817 4.66316 5.21209 4.11308 5.76276L2.87524 7.00001C2.32941 7.54759 2.02292 8.28922 2.02292 9.06238C2.02292 9.83554 2.32941 10.5772 2.87524 11.1248C3.14584 11.3957 3.46731 11.6106 3.82119 11.7569C4.17507 11.9033 4.55438 11.9783 4.93733 11.9776C5.32038 11.9784 5.69981 11.9035 6.0538 11.7571C6.40779 11.6107 6.72935 11.3958 6.99999 11.1248L7.41241 10.7123L6.58758 9.88751L6.17516 10.2999C5.84643 10.6272 5.40147 10.8109 4.93762 10.8109C4.47377 10.8109 4.0288 10.6272 3.70008 10.2999C3.37254 9.97135 3.18861 9.52632 3.18861 9.06238C3.18861 8.59844 3.37254 8.15341 3.70008 7.82484L4.93791 6.58759Z" fill="#FF9A62"/>
<path id="Vector_2" d="M7.00001 2.87527L6.58759 3.28768L7.41243 4.11252L7.82484 3.7001C8.15357 3.37284 8.59853 3.18912 9.06238 3.18912C9.52623 3.18912 9.9712 3.37284 10.2999 3.7001C10.6275 4.02867 10.8114 4.4737 10.8114 4.93764C10.8114 5.40159 10.6275 5.84661 10.2999 6.17518L9.06209 7.41243C8.40118 8.07335 7.24851 8.07335 6.58759 7.41243L6.17518 7.00002L5.35034 7.82485L5.76276 8.23727C6.31284 8.78793 7.04551 9.09185 7.82484 9.09185C8.60418 9.09185 9.33684 8.78793 9.88693 8.23727L11.1248 7.00002C11.6706 6.45243 11.9771 5.7108 11.9771 4.93764C11.9771 4.16448 11.6706 3.42285 11.1248 2.87527C10.5773 2.32915 9.83564 2.02246 9.06238 2.02246C8.28913 2.02246 7.54744 2.32915 7.00001 2.87527V2.87527Z" fill="#FF9A62"/>
</g>
</svg>
