<svg width="14" height="14" viewBox="0 0 14 14" fill="none" xmlns="http://www.w3.org/2000/svg">
<g id="image">
<path id="Vector" d="M11.0833 1.75H2.91667C2.27233 1.75 1.75 2.27233 1.75 2.91667V11.0833C1.75 11.7277 2.27233 12.25 2.91667 12.25H11.0833C11.7277 12.25 12.25 11.7277 12.25 11.0833V2.91667C12.25 2.27233 11.7277 1.75 11.0833 1.75Z" stroke="#040A19" stroke-width="1.16667" stroke-linecap="round" stroke-linejoin="round"/>
<path id="Vector_2" d="M4.95831 5.83336C5.44156 5.83336 5.83331 5.44161 5.83331 4.95836C5.83331 4.47511 5.44156 4.08336 4.95831 4.08336C4.47506 4.08336 4.08331 4.47511 4.08331 4.95836C4.08331 5.44161 4.47506 5.83336 4.95831 5.83336Z" stroke="#040A19" stroke-width="1.16667" stroke-linecap="round" stroke-linejoin="round"/>
<path id="Vector_3" d="M12.25 8.75003L9.33335 5.83336L2.91669 12.25" stroke="#040A19" stroke-width="1.16667" stroke-linecap="round" stroke-linejoin="round"/>
</g>
</svg>
