<svg width="8" height="8" viewBox="0 0 8 8" fill="none" xmlns="http://www.w3.org/2000/svg">
<g id="refresh-cw" clip-path="url(#clip0_8260_3367)">
<g id="Group 536">
<path id="Vector" d="M7.66663 1.33325V3.33325H5.66663" stroke="#285FEC" stroke-width="0.7" stroke-linecap="round" stroke-linejoin="round"/>
<path id="Vector_2" d="M0.333374 6.66675V4.66675H2.33337" stroke="#285FEC" stroke-width="0.7" stroke-linecap="round" stroke-linejoin="round"/>
<path id="Vector_3" d="M0.836667 2.79926C1.00572 2.32152 1.29304 1.89439 1.67182 1.55773C2.0506 1.22107 2.50849 0.985849 3.00276 0.874013C3.49704 0.762177 4.01158 0.777374 4.4984 0.918185C4.98521 1.059 5.42842 1.32083 5.78667 1.67926L7.33333 3.13259M0 4.46593L1.54667 5.91926C1.90492 6.27769 2.34812 6.53952 2.83494 6.68034C3.32175 6.82115 3.8363 6.83634 4.33057 6.72451C4.82484 6.61267 5.28273 6.37745 5.66151 6.04079C6.04029 5.70413 6.32761 5.277 6.49667 4.79926" stroke="#285FEC" stroke-width="0.7" stroke-linecap="round" stroke-linejoin="round"/>
</g>
</g>
<defs>
<clipPath id="clip0_8260_3367">
<rect width="8" height="8" fill="white"/>
</clipPath>
</defs>
</svg>
